# xmcd
#
# Track frame offsets: 
#        150
#        25858
#        44877
#        62721
#        82081
#        99584
#        118983
#        134106
#        147550
#        167104
#
# Disc length: 2496 seconds
#
# Revision: 0
# Processed by: cddbd v1.5.2PL0 Copyright (c) Steve Scherf et al.
# Submitted via: ExactAudioCopy v1.3
#
DISCID=a009be0a
DTITLE=Giba Guitar Byblos - My Duty
DYEAR=2011
DGENRE=Blues
TTITLE0=My Duty
TTITLE1=Chickenheads
TTITLE2=Goin' Down
TTITLE3=Ain't Nobody's Business
TTITLE4=Junior Bought Me A Jim
TTITLE5=Big Legged Woman
TTITLE6=Today I Started Lovin' You Again
TTITLE7=The Landlady
TTITLE8=Bad Boy
TTITLE9=You Don't Know What Love Is
EXTD=
EXTT0=
EXTT1=
EXTT2=
EXTT3=
EXTT4=
EXTT5=
EXTT6=
EXTT7=
EXTT8=
EXTT9=
PLAYORDER=
